HIERARCHY
ROOT Hips
{
	OFFSET 0.000000 0.000000 0.000000
	CHANNELS 6 Xposition Yposition Zposition Zrotation Yrotation Xrotation 
	JOINT LHipJoint
	{
		OFFSET 0.000000 0.000000 0.000000
		CHANNELS 3 Zrotation Yrotation Xrotation
		JOINT LeftUpLeg
		{
			OFFSET 1.363060 -1.794630 0.839290
			CHANNELS 3 Zrotation Yrotation Xrotation
			JOINT LeftLeg
			{
				OFFSET 2.448110 -6.726130 0.000000
				CHANNELS 3 Zrotation Yrotation Xrotation
				JOINT LeftFoot
				{
					OFFSET 2.562200 -7.039590 0.000000
					CHANNELS 3 Zrotation Yrotation Xrotation
					JOINT LeftToeBase
					{
						OFFSET 0.157640 -0.433110 2.322550
						CHANNELS 3 Zrotation Yrotation Xrotation
						End Site
						{
							OFFSET 0.000000 0.000000 0.000000
						}
					}
				}
			}
		}
	}
	JOINT RHipJoint
	{
		OFFSET 0.000000 0.000000 0.000000
		CHANNELS 3 Zrotation Yrotation Xrotation
		JOINT RightUpLeg
		{
			OFFSET -1.305520 -1.794630 0.839290
			CHANNELS 3 Zrotation Yrotation Xrotation
			JOINT RightLeg
			{
				OFFSET -2.542530 -6.985550 0.000000
				CHANNELS 3 Zrotation Yrotation Xrotation
				JOINT RightFoot
				{
					OFFSET -2.568260 -7.056230 0.000000
					CHANNELS 3 Zrotation Yrotation Xrotation
					JOINT RightToeBase
					{
						OFFSET -0.164730 -0.452590 2.363150
						CHANNELS 3 Zrotation Yrotation Xrotation
						End Site
						{
							OFFSET 0.000000 0.000000 0.000000
						}
					}
				}
			}
		}
	}
	JOINT LowerBack
	{
		OFFSET 0.000000 0.000000 0.000000
		CHANNELS 3 Zrotation Yrotation Xrotation
		JOINT Spine
		{
			OFFSET 0.028270 2.035590 -0.193380
			CHANNELS 3 Zrotation Yrotation Xrotation
			JOINT Spine1
			{
				OFFSET 0.056720 2.048850 -0.042750
				CHANNELS 3 Zrotation Yrotation Xrotation
				JOINT Neck
				{
					OFFSET 0.000000 0.000000 0.000000
					CHANNELS 3 Zrotation Yrotation Xrotation
					JOINT Neck1
					{
						OFFSET -0.054170 1.746240 0.172020
						CHANNELS 3 Zrotation Yrotation Xrotation
						JOINT Head
						{
							OFFSET 0.104070 1.761360 -0.123970
							CHANNELS 3 Zrotation Yrotation Xrotation
							End Site
							{
								OFFSET 0.000000 0.000000 0.000000
							}
						}
					}
				}
				JOINT LeftShoulder
				{
					OFFSET 0.000000 0.000000 0.000000
					CHANNELS 3 Zrotation Yrotation Xrotation
					JOINT LeftArm
					{
						OFFSET 3.362410 1.200890 -0.311210
						CHANNELS 3 Zrotation Yrotation Xrotation
						JOINT LeftForeArm
						{
							OFFSET 4.983000 -0.000000 -0.000000
							CHANNELS 3 Zrotation Yrotation Xrotation
							JOINT LeftHand
							{
								OFFSET 3.483560 -0.000000 -0.000000
								CHANNELS 3 Zrotation Yrotation Xrotation
								JOINT LeftFingerBase
								{
									OFFSET 0.000000 0.000000 0.000000
									CHANNELS 3 Zrotation Yrotation Xrotation
									JOINT LeftHandIndex1
									{
										OFFSET 0.715260 -0.000000 -0.000000
										CHANNELS 3 Zrotation Yrotation Xrotation
										End Site
										{
											OFFSET 0.000000 0.000000 0.000000
										}
									}
								}
								JOINT LThumb
								{
									OFFSET 0.000000 0.000000 0.000000
									CHANNELS 3 Zrotation Yrotation Xrotation
									End Site
									{
										OFFSET 0.000000 0.000000 0.000000
									}
								}
							}
						}
					}
				}
				JOINT RightShoulder
				{
					OFFSET 0.000000 0.000000 0.000000
					CHANNELS 3 Zrotation Yrotation Xrotation
					JOINT RightArm
					{
						OFFSET -3.136600 1.374050 -0.404650
						CHANNELS 3 Zrotation Yrotation Xrotation
						JOINT RightForeArm
						{
							OFFSET -5.241900 -0.000000 -0.000000
							CHANNELS 3 Zrotation Yrotation Xrotation
							JOINT RightHand
							{
								OFFSET -3.444170 -0.000000 -0.000000
								CHANNELS 3 Zrotation Yrotation Xrotation
								JOINT RightFingerBase
								{
									OFFSET 0.000000 0.000000 0.000000
									CHANNELS 3 Zrotation Yrotation Xrotation
									JOINT RightHandIndex1
									{
										OFFSET -0.622530 -0.000000 -0.000000
										CHANNELS 3 Zrotation Yrotation Xrotation
										End Site
										{
											OFFSET 0.000000 0.000000 0.000000
										}
									}
								}
								JOINT RThumb
								{
									OFFSET 0.000000 0.000000 0.000000
									CHANNELS 3 Zrotation Yrotation Xrotation
									End Site
									{
										OFFSET 0.000000 0.000000 0.000000
									}
								}
							}
						}
					}
				}
			}
		}
	}
}
MOTION
Frames: 12
Frame Time: 0.008333
-1.567825 16.509557 -1.297615 38.597320 76.442715 55.189229 -10.895724 5.511733 0.318829 -3.269454 15.157841 -5.707933 -0.905492 1.372773 28.030798 0.746123 -2.049634 22.188470 -1.296100 -0.000001 -76.861500 8.913359 -1.302922 6.873111 12.146397 11.723358 -45.842038 2.069275 -0.719012 22.090206 -0.645451 -1.334599 -4.400057 179.400799 -0.000000 -7.433200 0.917036 -4.360544 -8.317036 0.170514 -4.652735 -4.079121 -5.201014 -4.661235 1.306482 4.733777 -16.611683 -8.572798 -3.242825 -0.240901 -0.205706 0.000000 0.000000 0.000000 3.165690 5.966749 0.546945 -50.594625 -13.355118 29.666697 -178.781663 -74.024896 -179.990359 -0.483744 0.212148 0.003856 -0.071098 0.472955 0.000000 0.000000 0.000000 0.000000 0.000000 0.000000 0.000000 8.380129 -12.654521 0.348025 52.856798 5.962578 22.045644 179.069719 81.088791 -179.945886 15.189496 -4.393302 -0.577718 -0.256431 -0.138026 -0.000000 0.000000 0.000000 0.000000 0.000000 0.000000 0.000000 
-1.391680 16.434843 -1.207460 36.884605 76.002721 53.571789 -10.941858 5.439579 0.365632 -2.805332 14.512795 -6.366398 -0.744601 1.457007 30.535489 0.785019 -3.313282 23.004112 -1.954600 -0.000001 -75.007800 8.824222 -1.195888 7.146039 11.535055 14.009220 -47.147441 1.620820 -1.125596 26.575705 -0.904396 -2.126429 -5.810814 179.440900 0.000000 -13.168400 1.114160 -4.270117 -8.585813 0.146884 -4.599991 -4.140636 -5.493817 -4.596515 1.232076 5.176638 -16.193684 -8.449653 -3.400420 -0.255762 -0.169744 0.000000 0.000000 0.000000 2.824581 6.187014 0.576570 -50.645029 -13.286682 28.703674 -178.747765 -74.235442 -179.990922 -0.377221 0.227747 0.003738 -0.080875 0.473755 0.000000 0.000000 0.000000 0.000000 0.000000 0.000000 0.000000 9.182554 -12.058529 0.144371 53.975837 5.271448 19.128641 179.102017 81.418116 -179.945534 14.179663 -3.545859 -0.427562 -0.235162 -0.167810 -0.000000 0.000000 0.000000 0.000000 0.000000 0.000000 0.000000 
-1.224152 16.371254 -1.113996 35.353309 75.649195 52.094714 -10.990600 5.333724 0.401997 -2.273476 13.757453 -7.093795 -0.588545 1.540265 33.108786 0.826722 -4.568528 23.716963 -2.629399 0.000000 -72.347700 8.728343 -1.068703 7.358395 11.093347 16.098882 -48.033860 1.228837 -1.425076 30.367738 -1.184958 -3.084935 -7.133997 179.491600 -0.000000 -16.635500 1.300800 -4.224836 -8.772300 0.123350 -4.589232 -4.189017 -5.793062 -4.575789 1.149776 5.668534 -15.768914 -8.313734 -3.553383 -0.270194 -0.130353 0.000000 0.000000 0.000000 2.546598 6.374897 0.584097 -50.993067 -13.085695 27.579657 -178.743675 -74.681710 -179.992296 -0.161191 0.204946 0.003548 -0.092247 0.475254 0.000000 0.000000 0.000000 0.000000 0.000000 0.000000 0.000000 9.988453 -11.498375 -0.077146 55.534640 4.682107 15.925339 179.162428 82.066749 -179.946191 12.954301 -2.478867 -0.262857 -0.208985 -0.202211 -0.000000 0.000000 0.000000 0.000000 0.000000 0.000000 0.000000 
-1.065137 16.319874 -1.016935 34.076438 75.380047 50.835611 -11.035699 5.202300 0.436547 -1.713139 12.888289 -7.902972 -0.441461 1.624233 35.714646 0.867713 -5.698598 24.254026 -3.251100 -0.000000 -69.051200 8.628880 -0.937604 7.506463 10.846877 17.910384 -48.512353 0.918670 -1.632371 33.436896 -1.477787 -4.120895 -8.492390 179.577800 -0.000000 -18.792300 1.450533 -4.234194 -8.891824 0.098487 -4.627036 -4.225120 -6.085359 -4.606770 1.069220 6.196620 -15.360787 -8.173450 -3.697843 -0.283759 -0.089744 0.000000 0.000000 0.000000 2.337879 6.531092 0.564016 -51.660457 -12.739766 26.283901 -178.773360 -75.361572 -179.994432 0.162615 0.124843 0.002776 -0.104343 0.477754 0.000000 0.000000 0.000000 0.000000 0.000000 0.000000 0.000000 10.785666 -11.014973 -0.312482 57.527610 4.260850 12.481945 179.246259 83.004642 -179.948000 11.593036 -1.256001 -0.104835 -0.180432 -0.238572 -0.000000 0.000000 0.000000 0.000000 0.000000 0.000000 0.000000 
-0.914446 16.281083 -0.916015 33.123389 75.187002 49.867809 -11.071185 5.053822 0.475071 -1.163958 11.915189 -8.805985 -0.304601 1.711273 38.325265 0.904054 -6.593902 24.551346 -3.747800 0.000000 -65.161700 8.533997 -0.814451 7.590589 10.787879 19.388078 -48.611579 0.696464 -1.765568 35.793767 -1.772963 -5.158002 -9.931654 179.716100 0.000000 -20.247100 1.534518 -4.304212 -8.959420 0.069723 -4.716380 -4.250814 -6.357455 -4.693400 0.994119 6.748838 -14.987979 -8.032633 -3.832099 -0.296293 -0.048847 0.000000 0.000000 0.000000 2.209928 6.638221 0.511266 -52.662378 -12.218784 24.792795 -178.838587 -76.249844 -179.997274 0.586923 -0.023697 0.000704 -0.115935 0.481220 0.000000 0.000000 0.000000 0.000000 0.000000 0.000000 0.000000 11.570018 -10.638644 -0.557363 59.911264 4.048902 8.869471 179.346502 84.168342 -179.951116 10.131353 0.043487 0.028978 -0.151305 -0.274389 0.000000 0.000000 0.000000 0.000000 0.000000 0.000000 0.000000 
-0.771564 16.254663 -0.811383 32.517962 75.059930 49.220597 -11.095140 4.894019 0.521129 -0.653123 10.855893 -9.802484 -0.175178 1.801346 40.889820 0.937610 -7.144484 24.626961 -4.057700 0.000000 -61.522700 8.450185 -0.707489 7.613140 10.895003 20.507577 -48.364047 0.556979 -1.840114 37.466176 -2.057854 -6.129118 -11.416019 179.908199 0.000000 -21.145200 1.536629 -4.435252 -8.986043 0.036176 -4.855999 -4.263647 -6.597576 -4.834343 0.941159 7.321339 -14.693645 -7.911544 -3.953927 -0.307409 -0.013354 0.000000 0.000000 0.000000 2.159657 6.731722 0.423884 -53.995386 -11.577567 23.101988 -178.937318 -77.333045 179.999193 1.107521 -0.241766 -0.003780 -0.126524 0.485363 0.000000 0.000000 0.000000 0.000000 0.000000 0.000000 0.000000 12.356978 -10.421154 -0.812447 62.584247 4.111842 5.218999 179.455973 85.482998 -179.955982 8.512988 1.342724 0.125267 -0.121556 -0.307842 0.000000 0.000000 0.000000 0.000000 0.000000 0.000000 0.000000 
-0.635962 16.240005 -0.703210 32.278384 74.982718 48.915734 -11.104398 4.727483 0.575587 -0.206404 9.735753 -10.889961 -0.050690 1.893879 43.382443 0.968549 -7.282599 24.467113 -4.139500 0.000000 -58.129899 8.386191 -0.621387 7.577478 11.132473 21.254869 -47.812903 0.491000 -1.868209 38.504633 -2.315763 -6.957885 -12.892696 -179.855100 0.000000 -21.742000 1.441108 -4.623565 -8.979493 -0.004591 -5.040698 -4.265343 -6.798140 -5.024414 0.907189 7.907501 -14.488108 -7.811088 -4.064654 -0.317273 0.016527 0.000000 0.000000 0.000000 2.191663 6.790920 0.302011 -55.645001 -10.799998 21.184156 -179.065224 -78.556061 179.994947 1.720406 -0.517755 -0.012091 -0.135306 0.489496 0.000000 0.000000 0.000000 0.000000 0.000000 0.000000 0.000000 13.156777 -10.371303 -1.075927 65.426247 4.426528 1.671941 179.566811 86.850041 -179.963349 6.608004 2.572749 0.171325 -0.089927 -0.338022 0.000000 0.000000 0.000000 0.000000 0.000000 0.000000 0.000000 
-0.506859 16.236254 -0.592237 32.355708 74.936204 48.909423 -11.100440 4.555569 0.636164 0.168948 8.589982 -12.057566 0.071137 1.986784 45.770124 1.000232 -6.967862 24.087189 -3.976900 0.000000 -55.142500 8.344817 -0.559509 7.488797 11.470580 21.644917 -47.000724 0.487978 -1.859013 38.965138 -2.527518 -7.575833 -14.269558 -179.600200 -0.000000 -22.093300 1.252415 -4.858960 -8.943010 -0.052020 -5.260964 -4.255808 -6.954186 -5.253446 0.893479 8.501237 -14.383905 -7.738445 -4.164153 -0.325850 0.038741 0.000000 0.000000 0.000000 2.295594 6.824064 0.149366 -57.578715 -9.915975 19.029344 -179.214968 -79.863114 179.989840 2.433795 -0.830803 -0.025444 -0.142349 0.492885 0.000000 0.000000 0.000000 0.000000 0.000000 0.000000 0.000000 13.975028 -10.496405 -1.346673 68.297270 4.955489 -1.597627 179.672910 88.182386 -179.974426 4.212888 3.687212 0.152160 -0.053857 -0.364733 0.000000 0.000000 0.000000 0.000000 0.000000 0.000000 0.000000 
-0.383352 16.242410 -0.479390 32.654320 74.894816 49.114921 -11.086020 4.378056 0.700272 0.471213 7.453185 -13.285907 0.191312 2.076322 48.009110 1.039213 -6.184407 23.537527 -3.577800 -0.000000 -52.932700 8.325658 -0.523336 7.354143 11.881111 21.713516 -45.974939 0.537353 -1.819942 38.914852 -2.673608 -7.923751 -15.448019 -179.363800 0.000000 -22.245300 0.985810 -5.126495 -8.878928 -0.104362 -5.503888 -4.233971 -7.064630 -5.507357 0.905056 9.096829 -14.382173 -7.703922 -4.250797 -0.332926 0.050245 0.000000 0.000000 0.000000 2.445662 6.870008 -0.026149 -59.740506 -9.000004 16.660558 -179.377067 -81.205365 179.983667 3.271036 -1.151726 -0.044741 -0.148696 0.494816 -0.000000 0.000000 0.000000 0.000000 0.000000 0.000000 0.000000 14.809182 -10.787850 -1.622560 71.060089 5.635445 -4.412825 179.770250 89.410010 -179.990655 1.106589 4.653020 0.050571 -0.010439 -0.387792 0.000000 0.000000 0.000000 0.000000 0.000000 0.000000 0.000000 
-0.264609 16.257454 -0.365713 33.042646 74.827935 49.410174 -11.064791 4.194682 0.763315 0.705175 6.366028 -14.556325 0.308206 2.160036 50.069348 1.090129 -4.954743 22.833086 -2.968900 -0.000000 -51.328800 8.325363 -0.512558 7.183670 12.337679 21.516384 -44.786370 0.628883 -1.757454 38.432187 -2.738173 -7.961887 -16.343464 -179.183300 0.000000 -22.292500 0.663995 -5.407630 -8.789894 -0.158706 -5.753753 -4.201106 -7.129274 -5.769507 0.939173 9.680166 -14.460119 -7.707660 -4.321412 -0.338260 0.050867 0.000000 0.000000 0.000000 2.611247 6.946478 -0.215058 -62.061680 -8.093544 14.111059 -179.541937 -82.519410 179.976162 4.266396 -1.450192 -0.070579 -0.155570 0.494726 -0.000000 0.000000 0.000000 0.000000 0.000000 0.000000 0.000000 15.629763 -11.209215 -1.893797 73.608949 6.371206 -6.632971 -0.143010 89.511619 -0.013106 -2.865983 5.435928 -0.146937 0.042312 -0.406386 0.000000 0.000000 0.000000 0.000000 0.000000 0.000000 0.000000 
-0.149826 16.280410 -0.252202 33.356949 74.700676 49.643784 -11.041536 4.005698 0.821202 0.878757 5.366512 -15.848665 0.418688 2.236005 51.919515 1.157929 -3.328134 21.997172 -2.193200 0.000000 -50.165000 8.337155 -0.525116 6.991161 12.816790 21.130321 -43.486207 0.752212 -1.677231 37.602296 -2.712742 -7.680379 -16.893609 -179.086200 -0.000000 -22.334900 0.315144 -5.681531 -8.682068 -0.210787 -5.993097 -4.159777 -7.147307 -6.021688 0.991908 10.231004 -14.590438 -7.746536 -4.370718 -0.341464 0.041408 0.000000 0.000000 0.000000 2.755163 7.061985 -0.407377 -64.460385 -7.221062 11.431616 -179.700586 -83.738005 179.967096 5.460133 -1.698070 -0.103059 -0.164309 0.492253 -0.000000 0.000000 0.000000 0.000000 0.000000 0.000000 0.000000 16.387376 -11.716983 -2.144000 75.872059 7.080167 -8.156867 -0.067045 88.587582 -0.041568 -7.714003 5.983566 -0.436267 0.104325 -0.418645 0.000000 0.000000 0.000000 0.000000 0.000000 0.000000 0.000000 
-0.038366 16.310413 -0.139742 33.423504 74.476870 49.656088 -11.021274 3.812055 0.870210 1.002398 4.486627 -17.143052 0.518598 2.303387 53.530737 1.246611 -1.380049 21.057863 -1.304700 0.000000 -49.260700 8.351949 -0.557154 6.792869 13.298452 20.647993 -42.121411 0.896785 -1.584256 36.510861 -2.598769 -7.103933 -17.067069 -179.082600 0.000000 -22.470300 -0.032177 -5.926486 -8.563834 -0.256274 -6.203566 -4.112787 -7.119299 -6.244814 1.060734 10.731255 -14.738924 -7.815916 -4.393362 -0.342139 0.023021 0.000000 0.000000 0.000000 2.839768 7.239106 -0.591562 -66.849723 -6.420138 8.710000 -179.845404 -84.816839 179.956365 6.888474 -1.875338 -0.141368 -0.176396 0.487327 -0.000000 0.000000 0.000000 0.000000 0.000000 0.000000 0.000000 17.032459 -12.255181 -2.356610 77.796455 7.697798 -8.934130 -0.002334 87.800175 -0.073836 -13.263497 6.225482 -0.782021 0.172712 -0.422121 0.000000 0.000000 0.000000 0.000000 0.000000 0.000000 0.000000 
